<svg width="79" height="79" viewBox="0 0 79 79" fill="none" xmlns="http://www.w3.org/2000/svg">
<path d="M75.05 0H15.8C13.7048 0 11.6954 0.832319 10.2139 2.31386C8.73232 3.79539 7.9 5.80479 7.9 7.9V19.75H0V27.65H7.9V35.55H0V43.45H7.9V51.35H0V59.25H7.9V71.1C7.9 73.1952 8.73232 75.2046 10.2139 76.6861C11.6954 78.1677 13.7048 79 15.8 79H75.05C76.0976 79 77.1023 78.5838 77.8431 77.8431C78.5838 77.1023 79 76.0976 79 75.05V3.95C79 2.90239 78.5838 1.8977 77.8431 1.15693C77.1023 0.416159 76.0976 0 75.05 0ZM43.45 11.8461C49.9596 11.8461 55.3 17.1825 55.3 23.6961C55.2886 26.8357 54.0365 29.8436 51.8168 32.064C49.5971 34.2845 46.5897 35.5375 43.45 35.55C36.9444 35.55 31.6 30.2057 31.6 23.6961C31.6 17.1825 36.9444 11.8461 43.45 11.8461ZM67.15 63.2H19.75V60.2375C19.75 51.4725 30.4347 42.4625 43.45 42.4625C56.4653 42.4625 67.15 51.4725 67.15 60.2375V63.2Z" fill="#4A5586"/>
</svg>
