<svg width="42" height="20" viewBox="0 0 42 20" fill="none" xmlns="http://www.w3.org/2000/svg">
<path d="M33.1039 19.8645L8.83077 19.8645C4.38071 19.8645 0.739746 16.2888 0.739746 11.9186C0.739746 7.54831 4.38071 3.97266 8.83077 3.97266L33.1039 3.97266C37.5539 3.97266 41.1949 7.54831 41.1949 11.9186C41.1949 16.2888 37.5539 19.8645 33.1039 19.8645Z" fill="#ADADAD"/>
<path d="M33.1039 15.8918L8.83077 15.8918C4.38071 15.8918 0.739746 12.3161 0.739746 7.9459C0.739746 3.57565 4.38071 -1.11282e-09 8.83077 -2.47294e-09L33.1039 -9.89176e-09C37.5539 -1.12519e-08 41.1949 3.57565 41.1949 7.9459C41.1949 12.3161 37.5539 15.8918 33.1039 15.8918Z" fill="#E0BE07"/>
<path d="M20.9671 11.9186C23.2015 11.9186 25.0127 10.1399 25.0127 7.94561C25.0127 5.75135 23.2015 3.97266 20.9671 3.97266C18.7328 3.97266 16.9216 5.75135 16.9216 7.94561C16.9216 10.1399 18.7328 11.9186 20.9671 11.9186Z" fill="#9D870D"/>
</svg>
