<svg width="213" height="211" viewBox="0 0 213 211" fill="none" xmlns="http://www.w3.org/2000/svg">
<path opacity="0.2" d="M3.28194e-08 105.453C5.09447e-08 163.693 47.4711 210.906 106.03 210.906C164.588 210.906 212.06 163.693 212.06 105.453C212.06 47.2132 164.588 -5.12236e-08 106.03 -3.29988e-08C47.4711 -1.47741e-08 1.46938e-08 47.2132 3.28194e-08 105.453ZM183.01 105.453C183.01 147.738 148.545 182.017 106.03 182.017C63.5148 182.017 29.0493 147.738 29.0493 105.453C29.0493 63.1693 63.5148 28.8915 106.03 28.8915C148.545 28.8915 183.01 63.1693 183.01 105.453Z" fill="#8F9AB3"/>
<path opacity="0.2" d="M106.03 210.906L106.03 182.017C148.545 182.017 183.01 147.738 183.01 105.453C183.01 63.1693 148.545 28.8915 106.03 28.8915C63.5148 28.8915 29.0493 63.1693 29.0493 105.453C29.0493 106.903 29.0896 108.347 29.1698 109.784L0.165581 111.388C0.0551941 109.417 3.34371e-08 107.438 3.28194e-08 105.453C1.46938e-08 47.2132 47.4711 -1.47741e-08 106.03 -3.29988e-08C164.588 -5.12236e-08 212.06 47.2132 212.06 105.453C212.06 163.693 164.588 210.906 106.03 210.906Z" fill="#394578"/>
<path opacity="0.2" d="M104.577 210.906L104.577 181.909C147.674 181.909 182.612 147.506 182.612 105.067C182.612 87.8379 176.855 71.5096 166.396 58.1649L189.707 40.4478C204.11 58.824 212.059 81.3695 212.059 105.067C212.059 163.521 163.937 210.906 104.577 210.906Z" fill="#394578"/>
</svg>
