<svg width="36" height="36" viewBox="0 0 36 36" fill="none" xmlns="http://www.w3.org/2000/svg">
<path d="M23.3888 4.54078C22.0205 3.06352 20.1094 2.25 18.0001 2.25C15.8794 2.25 13.962 3.05859 12.6001 4.52672C11.2233 6.01102 10.5526 8.02828 10.7101 10.2066C11.0223 14.5041 14.2925 18 18.0001 18C21.7076 18 24.9723 14.5048 25.2894 10.208C25.449 8.04937 24.774 6.03633 23.3888 4.54078Z" fill="#4A5586"/>
<path d="M30.3749 33.75H5.62491C5.30096 33.7542 4.98014 33.6862 4.68579 33.5508C4.39145 33.4154 4.13099 33.2161 3.92335 32.9674C3.46632 32.4211 3.2821 31.6751 3.41851 30.9206C4.01195 27.6286 5.86398 24.8632 8.77491 22.9219C11.361 21.1985 14.6369 20.25 17.9999 20.25C21.363 20.25 24.6388 21.1992 27.2249 22.9219C30.1358 24.8625 31.9879 27.6279 32.5813 30.9199C32.7177 31.6744 32.5335 32.4204 32.0765 32.9667C31.8689 33.2155 31.6085 33.415 31.3141 33.5505C31.0198 33.686 30.6989 33.7541 30.3749 33.75V33.75Z" fill="#4A5586"/>
</svg>
