<svg width="153" height="145" viewBox="0 0 153 145" fill="none" xmlns="http://www.w3.org/2000/svg">
<path fill-rule="evenodd" clip-rule="evenodd" d="M51 42.2917C51 35.8823 53.6866 29.7354 58.4688 25.2033C63.251 20.6711 69.737 18.125 76.5 18.125C83.263 18.125 89.749 20.6711 94.5312 25.2033C99.3134 29.7354 102 35.8823 102 42.2917C102 48.7011 99.3134 54.8479 94.5312 59.3801C89.749 63.9122 83.263 66.4583 76.5 66.4583C69.737 66.4583 63.251 63.9122 58.4688 59.3801C53.6866 54.8479 51 48.7011 51 42.2917ZM51 78.5417C42.5462 78.5417 34.4387 81.7243 28.461 87.3895C22.4832 93.0546 19.125 100.738 19.125 108.75C19.125 113.557 21.14 118.167 24.7266 121.566C28.3132 124.965 33.1777 126.875 38.25 126.875H114.75C119.822 126.875 124.687 124.965 128.273 121.566C131.86 118.167 133.875 113.557 133.875 108.75C133.875 100.738 130.517 93.0546 124.539 87.3895C118.561 81.7243 110.454 78.5417 102 78.5417H51Z" fill="#F8F8F8"/>
</svg>
