<svg width="41" height="20" viewBox="0 0 41 20" fill="none" xmlns="http://www.w3.org/2000/svg">
<path d="M32.6407 19.8645L8.36764 19.8645C3.91757 19.8645 0.276611 16.2888 0.276611 11.9186C0.276611 7.54831 3.91757 3.97266 8.36764 3.97266L32.6407 3.97266C37.0908 3.97266 40.7318 7.54831 40.7318 11.9186C40.7318 16.2888 37.0908 19.8645 32.6407 19.8645Z" fill="#ADADAD"/>
<path d="M32.6405 15.8918L8.3674 15.8918C3.91733 15.8918 0.276367 12.3161 0.276367 7.9459C0.276367 3.57565 3.91733 -1.11282e-09 8.3674 -2.47294e-09L32.6405 -9.89176e-09C37.0905 -1.12519e-08 40.7315 3.57565 40.7315 7.9459C40.7315 12.3161 37.0905 15.8918 32.6405 15.8918Z" fill="#A41C14"/>
<path d="M20.5039 11.9186C22.7382 11.9186 24.5494 10.1399 24.5494 7.94561C24.5494 5.75135 22.7382 3.97266 20.5039 3.97266C18.2696 3.97266 16.4584 5.75135 16.4584 7.94561C16.4584 10.1399 18.2696 11.9186 20.5039 11.9186Z" fill="#660E09"/>
</svg>
