<svg width="429" height="429" viewBox="0 0 429 429" fill="none" xmlns="http://www.w3.org/2000/svg">
<path d="M330.487 163.621C330.605 159.958 329.976 156.302 328.638 152.876C327.3 149.449 325.281 146.325 322.704 143.692C320.127 141.059 317.046 138.973 313.649 137.56C310.251 136.148 306.608 135.439 302.941 135.477L122.935 137.241C119.297 137.277 115.709 138.046 112.389 139.504C109.069 140.962 106.083 143.078 103.612 145.725C101.14 148.372 99.2331 151.496 98.0053 154.909C96.7774 158.322 96.2539 161.954 96.4661 165.588L97.6229 185.311C98.2236 195.552 106.733 201.666 113.056 204.252C116.159 205.521 118.845 207.643 120.798 210.372C122.752 213.1 123.892 216.321 124.087 219.658C124.281 222.994 123.521 226.308 121.896 229.211C120.27 232.114 117.847 234.486 114.909 236.05C108.929 239.241 101.17 246.149 101.771 256.39L102.621 271.03C103.025 277.963 106.082 284.5 111.158 289.285C116.233 294.07 122.938 296.736 129.881 296.73L300.318 296.589C307.289 296.583 313.962 293.884 318.945 289.057C323.927 284.231 326.834 277.649 327.058 270.685L327.604 253.773C327.919 243.791 320.358 237.019 314.493 233.81C311.612 232.231 309.221 229.884 307.587 227.033C305.954 224.183 305.144 220.941 305.247 217.672C305.351 214.403 306.364 211.236 308.173 208.527C309.982 205.817 312.515 203.673 315.489 202.334C321.56 199.612 329.535 193.485 329.849 183.503L330.472 163.621L330.487 163.621Z" fill="#394578"/>
<path d="M238.593 140.034L240.264 136.534L236.222 136.534L237.893 140.034L238.593 140.034ZM237.893 292.812L236.222 296.312L240.264 296.312L238.593 292.812L237.893 292.812ZM237.893 139.684L237.893 174.837L238.593 174.837L238.593 139.684L237.893 139.684ZM237.893 178.12L237.893 254.726L238.593 254.726L238.593 178.12L237.893 178.12ZM237.893 258.009L237.893 293.162L238.593 293.162L238.593 258.009L237.893 258.009Z" fill="#D9D9D9"/>
<path d="M144.972 187.538L144.867 192.855L132.596 192.611L132.702 187.294L144.972 187.538ZM162.16 177.445L161.64 203.622L154.533 203.481L154.923 183.848L154.77 183.845L148.975 187.157L149.095 181.124L155.615 177.315L162.16 177.445ZM177.488 204.295C175.477 204.255 173.699 203.866 172.154 203.127C170.617 202.381 169.414 201.372 168.544 200.102C167.683 198.832 167.26 197.383 167.275 195.755L174.177 195.892C174.185 196.796 174.52 197.523 175.182 198.073C175.853 198.623 176.657 198.908 177.595 198.926C178.319 198.941 178.961 198.8 179.521 198.504C180.081 198.2 180.525 197.766 180.851 197.201C181.178 196.636 181.344 195.975 181.351 195.216C181.375 194.449 181.235 193.782 180.93 193.213C180.626 192.636 180.201 192.188 179.653 191.871C179.105 191.544 178.469 191.374 177.745 191.36C176.995 191.345 176.297 191.514 175.651 191.868C175.013 192.213 174.539 192.703 174.228 193.336L168.015 191.985L169.324 177.587L186.911 177.937L186.798 183.612L175.039 183.378L174.413 189.145L174.567 189.148C174.991 188.364 175.712 187.722 176.728 187.222C177.744 186.714 178.916 186.473 180.245 186.499C181.805 186.53 183.187 186.92 184.391 187.668C185.603 188.417 186.551 189.438 187.232 190.73C187.923 192.014 188.247 193.486 188.206 195.148C188.178 196.971 187.712 198.582 186.806 199.979C185.909 201.368 184.664 202.447 183.072 203.216C181.48 203.978 179.618 204.337 177.488 204.295ZM206.169 199.596L206.196 198.216C206.218 197.108 206.477 196.09 206.973 195.162C207.478 194.235 208.195 193.495 209.127 192.942C210.059 192.389 211.185 192.126 212.506 192.152C213.86 192.179 214.992 192.483 215.902 193.064C216.819 193.645 217.507 194.408 217.966 195.355C218.424 196.302 218.643 197.338 218.62 198.463L218.593 199.843C218.571 200.951 218.308 201.968 217.803 202.896C217.307 203.824 216.59 204.564 215.649 205.117C214.709 205.669 213.57 205.932 212.232 205.905C210.895 205.879 209.771 205.571 208.862 204.982C207.953 204.393 207.27 203.625 206.811 202.678C206.361 201.731 206.147 200.704 206.169 199.596ZM210.644 198.304L210.617 199.685C210.607 200.17 210.717 200.654 210.946 201.136C211.184 201.61 211.64 201.853 212.313 201.866C213.02 201.88 213.489 201.66 213.72 201.204C213.959 200.748 214.083 200.265 214.094 199.754L214.121 198.373C214.131 197.862 214.035 197.366 213.831 196.884C213.627 196.403 213.159 196.155 212.426 196.14C211.753 196.127 211.288 196.356 211.032 196.829C210.784 197.301 210.655 197.793 210.644 198.304ZM192.765 184.344L192.792 182.964C192.815 181.839 193.078 180.813 193.582 179.885C194.095 178.958 194.817 178.222 195.749 177.678C196.68 177.133 197.798 176.874 199.101 176.9C200.456 176.927 201.588 177.231 202.497 177.812C203.415 178.392 204.103 179.156 204.562 180.103C205.02 181.05 205.238 182.086 205.216 183.21L205.188 184.591C205.166 185.716 204.903 186.738 204.399 187.657C203.903 188.576 203.185 189.303 202.246 189.839C201.306 190.374 200.167 190.629 198.829 190.602C197.491 190.576 196.368 190.272 195.459 189.691C194.55 189.111 193.866 188.351 193.407 187.413C192.957 186.475 192.743 185.452 192.765 184.344ZM197.291 183.053L197.264 184.433C197.254 184.945 197.363 185.433 197.593 185.898C197.822 186.363 198.261 186.601 198.908 186.614C199.616 186.628 200.085 186.407 200.315 185.952C200.555 185.496 200.679 185.013 200.689 184.501L200.717 183.121C200.727 182.61 200.63 182.113 200.427 181.632C200.223 181.151 199.755 180.903 199.022 180.888C198.349 180.875 197.892 181.113 197.653 181.603C197.421 182.084 197.301 182.567 197.291 183.053ZM194.543 204.275L213.059 178.456L216.689 178.528L198.173 204.347L194.543 204.275Z" fill="#D9D9D9"/>
<path d="M165.536 234.164L158.262 234.019L158.637 215.114L165.837 215.257C167.782 215.296 169.455 215.707 170.855 216.492C172.262 217.272 173.336 218.376 174.077 219.807C174.824 221.232 175.178 222.929 175.139 224.898C175.1 226.867 174.682 228.552 173.885 229.952C173.087 231.346 171.976 232.408 170.552 233.137C169.128 233.86 167.456 234.202 165.536 234.164ZM163.481 229.764L165.438 229.803C166.373 229.822 167.173 229.687 167.837 229.398C168.508 229.11 169.023 228.6 169.382 227.868C169.748 227.137 169.944 226.112 169.97 224.795C169.996 223.478 169.838 222.447 169.496 221.702C169.16 220.956 168.653 220.426 167.976 220.111C167.305 219.796 166.477 219.628 165.492 219.609L163.683 219.573L163.481 229.764ZM177.326 234.398L177.702 215.493L191.327 215.763L191.245 219.899L182.752 219.73L182.688 222.979L190.479 223.134L190.396 227.27L182.605 227.115L182.541 230.364L190.997 230.532L190.914 234.668L177.326 234.398Z" fill="#D9D9D9"/>
<path d="M114.939 261.004L115 246.458L121.278 246.485C122.358 246.489 123.301 246.69 124.109 247.086C124.917 247.483 125.545 248.051 125.991 248.792C126.438 249.532 126.659 250.419 126.655 251.451C126.651 252.492 126.415 253.37 125.948 254.083C125.486 254.796 124.837 255.333 124.002 255.694C123.172 256.055 122.203 256.233 121.095 256.229L117.345 256.213L117.358 253.145L120.313 253.157C120.777 253.159 121.172 253.104 121.499 252.992C121.831 252.875 122.085 252.689 122.262 252.434C122.443 252.179 122.534 251.845 122.536 251.433C122.537 251.017 122.449 250.678 122.27 250.417C122.096 250.151 121.844 249.956 121.513 249.831C121.186 249.702 120.791 249.636 120.327 249.634L118.935 249.628L118.887 261.02L114.939 261.004ZM123.489 254.364L127.098 261.055L122.808 261.037L119.285 254.346L123.489 254.364ZM128.298 261.06L128.359 246.515L138.842 246.559L138.829 249.741L132.294 249.713L132.284 252.213L138.278 252.238L138.265 255.42L132.271 255.395L132.26 257.895L138.766 257.922L138.752 261.104L128.298 261.06ZM132.342 245.168L133.719 241.992L137.071 242.006L134.927 245.179L132.342 245.168ZM146.336 261.136L140.739 261.112L140.8 246.567L146.34 246.59C147.836 246.597 149.128 246.893 150.214 247.48C151.305 248.063 152.145 248.899 152.732 249.991C153.324 251.078 153.617 252.379 153.611 253.894C153.604 255.409 153.303 256.71 152.706 257.796C152.11 258.878 151.268 259.708 150.182 260.286C149.095 260.859 147.813 261.142 146.336 261.136ZM144.702 257.777L146.208 257.783C146.927 257.786 147.541 257.673 148.049 257.443C148.561 257.213 148.951 256.815 149.218 256.248C149.491 255.681 149.629 254.89 149.633 253.877C149.638 252.864 149.504 252.073 149.231 251.503C148.964 250.934 148.568 250.532 148.043 250.298C147.523 250.064 146.885 249.945 146.127 249.942L144.735 249.936L144.702 257.777ZM164.076 246.665L168.025 246.682L167.986 256C167.981 257.108 167.712 258.066 167.178 258.873C166.649 259.676 165.913 260.295 164.969 260.732C164.024 261.163 162.93 261.376 161.685 261.371C160.43 261.366 159.332 261.143 158.392 260.704C157.452 260.26 156.72 259.634 156.198 258.827C155.681 258.015 155.424 257.055 155.429 255.947L155.468 246.629L159.417 246.646L159.379 255.623C159.377 256.073 159.475 256.475 159.672 256.831C159.87 257.183 160.143 257.458 160.493 257.659C160.847 257.859 161.249 257.96 161.699 257.962C162.153 257.964 162.556 257.866 162.908 257.669C163.259 257.471 163.535 257.198 163.735 256.848C163.935 256.494 164.036 256.092 164.038 255.642L164.076 246.665ZM183.458 252.201L179.452 252.185C179.425 251.853 179.351 251.552 179.229 251.282C179.112 251.011 178.947 250.779 178.735 250.583C178.527 250.384 178.275 250.231 177.977 250.126C177.679 250.016 177.341 249.96 176.962 249.958C176.299 249.955 175.737 250.114 175.277 250.434C174.821 250.754 174.473 251.214 174.234 251.815C173.999 252.415 173.88 253.136 173.877 253.979C173.873 254.869 173.988 255.616 174.222 256.218C174.461 256.816 174.807 257.267 175.261 257.572C175.714 257.872 176.26 258.023 176.899 258.026C177.264 258.028 177.591 257.984 177.88 257.895C178.169 257.802 178.421 257.668 178.635 257.494C178.848 257.319 179.022 257.109 179.156 256.864C179.294 256.613 179.388 256.332 179.436 256.02L183.442 256.065C183.392 256.68 183.216 257.307 182.915 257.945C182.614 258.578 182.188 259.163 181.637 259.701C181.09 260.234 180.413 260.662 179.607 260.985C178.801 261.308 177.865 261.468 176.8 261.463C175.464 261.458 174.268 261.166 173.21 260.589C172.156 260.011 171.324 259.165 170.713 258.05C170.107 256.935 169.807 255.572 169.814 253.962C169.821 252.343 170.139 250.981 170.769 249.875C171.399 248.765 172.245 247.928 173.308 247.365C174.371 246.796 175.556 246.515 176.863 246.52C177.781 246.524 178.626 246.653 179.397 246.907C180.167 247.161 180.843 247.531 181.423 248.017C182.004 248.497 182.47 249.089 182.822 249.791C183.174 250.493 183.386 251.297 183.458 252.201ZM184.861 249.935L184.875 246.753L197.517 246.806L197.503 249.988L193.128 249.969L193.081 261.333L189.189 261.317L189.236 249.953L184.861 249.935ZM202.952 246.829L202.891 261.374L198.942 261.358L199.003 246.812L202.952 246.829ZM218.883 254.169C218.877 255.788 218.556 257.153 217.922 258.263C217.287 259.368 216.434 260.205 215.361 260.773C214.289 261.337 213.094 261.616 211.778 261.611C210.452 261.605 209.256 261.313 208.188 260.736C207.125 260.154 206.281 259.308 205.656 258.197C205.036 257.082 204.729 255.719 204.736 254.109C204.743 252.49 205.061 251.128 205.69 250.022C206.325 248.912 207.176 248.075 208.244 247.512C209.316 246.943 210.515 246.662 211.841 246.667C213.157 246.673 214.349 246.965 215.417 247.542C216.485 248.115 217.331 248.959 217.956 250.074C218.581 251.185 218.89 252.55 218.883 254.169ZM214.821 254.152C214.825 253.281 214.712 252.546 214.482 251.949C214.257 251.346 213.921 250.89 213.472 250.581C213.029 250.266 212.48 250.108 211.827 250.105C211.173 250.102 210.621 250.256 210.17 250.567C209.723 250.873 209.383 251.326 209.148 251.926C208.919 252.522 208.802 253.255 208.798 254.126C208.795 254.998 208.905 255.734 209.13 256.337C209.359 256.934 209.696 257.39 210.14 257.704C210.588 258.014 211.139 258.17 211.793 258.173C212.446 258.176 212.996 258.024 213.442 257.718C213.893 257.408 214.234 256.955 214.464 256.359C214.698 255.759 214.817 255.023 214.821 254.152ZM233.326 246.957L233.265 261.502L229.969 261.488L224.746 253.824L224.661 253.824L224.629 261.466L220.68 261.449L220.741 246.904L224.093 246.918L229.232 254.553L229.345 254.554L229.377 246.94L233.326 246.957Z" fill="#D9D9D9"/>
<path d="M289 201.656C289.521 201.615 289.927 201.419 290.219 201.07C290.51 200.727 290.656 200.203 290.656 199.5C290.656 199.052 290.602 198.685 290.492 198.398C290.388 198.117 290.245 197.909 290.063 197.773C289.88 197.638 289.672 197.568 289.438 197.562C289.245 197.552 289.07 197.586 288.914 197.664C288.763 197.747 288.625 197.878 288.5 198.055C288.38 198.232 288.271 198.458 288.172 198.734C288.073 199.01 287.984 199.339 287.906 199.719L287.625 201.031C287.438 201.917 287.19 202.674 286.883 203.305C286.576 203.935 286.214 204.451 285.797 204.852C285.385 205.253 284.922 205.547 284.406 205.734C283.891 205.927 283.328 206.026 282.719 206.031C281.667 206.026 280.776 205.763 280.047 205.242C279.318 204.721 278.763 203.977 278.383 203.008C278.003 202.044 277.812 200.885 277.812 199.531C277.812 198.141 278.018 196.927 278.43 195.891C278.841 194.859 279.474 194.057 280.328 193.484C281.188 192.917 282.286 192.63 283.625 192.625L283.625 196.75C283.135 196.776 282.724 196.898 282.391 197.117C282.057 197.336 281.805 197.643 281.633 198.039C281.461 198.44 281.375 198.917 281.375 199.469C281.375 199.932 281.432 200.32 281.547 200.633C281.661 200.945 281.82 201.182 282.023 201.344C282.227 201.505 282.458 201.589 282.719 201.594C282.964 201.589 283.177 201.508 283.359 201.352C283.547 201.201 283.714 200.951 283.859 200.602C284.01 200.253 284.151 199.781 284.281 199.188L284.625 197.594C284.932 196.177 285.445 195.06 286.164 194.242C286.888 193.43 287.875 193.026 289.125 193.031C290.141 193.026 291.029 193.297 291.789 193.844C292.555 194.396 293.151 195.159 293.578 196.133C294.005 197.112 294.219 198.234 294.219 199.5C294.219 200.792 294.003 201.909 293.57 202.852C293.138 203.794 292.529 204.521 291.742 205.031C290.961 205.547 290.047 205.807 289 205.813L289 201.656ZM294 217.152L294 221.496L283.75 221.496C282.531 221.496 281.477 221.204 280.586 220.621C279.701 220.043 279.016 219.236 278.531 218.199C278.052 217.163 277.812 215.96 277.812 214.59C277.812 213.21 278.052 212.001 278.531 210.965C279.016 209.928 279.701 209.121 280.586 208.543C281.477 207.97 282.531 207.684 283.75 207.684L294 207.684L294 212.027L284.125 212.027C283.63 212.027 283.188 212.137 282.797 212.355C282.411 212.574 282.109 212.876 281.891 213.262C281.672 213.652 281.563 214.095 281.563 214.59C281.563 215.09 281.672 215.533 281.891 215.918C282.109 216.303 282.411 216.605 282.797 216.824C283.188 217.043 283.63 217.152 284.125 217.152L294 217.152ZM278 223.561L294 223.561L294 230.467C294 231.654 293.784 232.693 293.352 233.584C292.919 234.475 292.297 235.167 291.484 235.662C290.672 236.157 289.698 236.404 288.563 236.404C287.417 236.404 286.451 236.149 285.664 235.639C284.878 235.133 284.284 234.423 283.883 233.506C283.482 232.594 283.281 231.529 283.281 230.311L283.281 226.186L286.656 226.186L286.656 229.436C286.656 229.946 286.719 230.381 286.844 230.74C286.974 231.105 287.18 231.383 287.461 231.576C287.742 231.774 288.109 231.873 288.563 231.873C289.021 231.873 289.393 231.774 289.68 231.576C289.971 231.383 290.185 231.105 290.32 230.74C290.461 230.381 290.531 229.946 290.531 229.436L290.531 227.904L278 227.904L278 223.561ZM285.344 232.936L278 236.936L278 232.217L285.344 228.311L285.344 232.936Z" fill="#D9D9D9"/>
<path d="M255.078 144.936L269.623 144.985L269.61 148.934L258.246 148.895L258.226 154.776L255.045 154.765L255.078 144.936ZM262.266 169.91C260.647 169.905 259.282 169.585 258.171 168.952C257.066 168.318 256.228 167.466 255.659 166.394C255.094 165.322 254.814 164.128 254.819 162.811C254.823 161.486 255.114 160.289 255.69 159.22C256.271 158.157 257.117 157.312 258.227 156.686C259.342 156.065 260.704 155.757 262.314 155.763C263.933 155.768 265.296 156.085 266.402 156.714C267.512 157.348 268.35 158.198 268.914 159.265C269.484 160.337 269.766 161.536 269.762 162.862C269.757 164.178 269.467 165.37 268.89 166.439C268.318 167.507 267.475 168.354 266.36 168.98C265.25 169.606 263.885 169.916 262.266 169.91ZM262.28 165.848C263.151 165.851 263.885 165.737 264.483 165.507C265.085 165.282 265.541 164.945 265.85 164.496C266.164 164.052 266.322 163.504 266.324 162.85C266.326 162.197 266.172 161.645 265.861 161.194C265.555 160.748 265.101 160.408 264.501 160.174C263.905 159.944 263.172 159.828 262.3 159.825C261.429 159.822 260.692 159.933 260.09 160.159C259.493 160.389 259.037 160.726 258.723 161.17C258.414 161.618 258.258 162.17 258.256 162.823C258.254 163.476 258.406 164.026 258.712 164.472C259.023 164.923 259.476 165.263 260.072 165.492C260.673 165.726 261.409 165.845 262.28 165.848ZM254.987 171.713L269.533 171.762L269.511 178.04C269.508 179.12 269.308 180.064 268.912 180.872C268.517 181.681 267.949 182.308 267.208 182.756C266.468 183.203 265.582 183.425 264.55 183.421C263.508 183.418 262.631 183.183 261.917 182.716C261.204 182.255 260.666 181.607 260.305 180.772C259.943 179.942 259.764 178.973 259.768 177.865L259.78 174.115L262.848 174.126L262.838 177.08C262.837 177.544 262.892 177.94 263.005 178.267C263.122 178.599 263.308 178.853 263.563 179.029C263.818 179.21 264.152 179.301 264.564 179.302C264.981 179.304 265.319 179.215 265.58 179.036C265.846 178.861 266.041 178.609 266.165 178.278C266.294 177.951 266.36 177.556 266.361 177.092L266.366 175.7L254.974 175.662L254.987 171.713ZM261.634 180.258L254.946 183.872L254.961 179.582L261.649 176.054L261.634 180.258ZM254.942 185.072L269.487 185.121L269.452 195.604L266.27 195.594L266.292 189.059L263.792 189.051L263.772 195.045L260.59 195.034L260.61 189.04L258.11 189.032L258.088 195.537L254.907 195.527L254.942 185.072ZM269.445 197.563L269.429 202.477L261.179 205.83L261.178 206.001L269.405 209.409L269.388 214.324L254.843 214.275L254.856 210.411L263.265 210.44L263.266 210.326L254.981 207.059L254.989 204.73L263.352 201.519L263.353 201.406L254.887 201.377L254.9 197.513L269.445 197.563ZM269.355 224.129L254.81 224.079L254.823 220.131L269.369 220.18L269.355 224.129ZM254.803 225.951L269.349 226L269.328 232.278C269.324 233.358 269.108 234.302 268.679 235.11C268.25 235.918 267.649 236.546 266.876 236.993C266.102 237.44 265.199 237.662 264.167 237.659C263.126 237.655 262.224 237.42 261.464 236.954C260.703 236.492 260.118 235.843 259.709 235.009C259.3 234.179 259.097 233.21 259.101 232.102L259.114 228.352L262.182 228.362L262.172 231.317C262.17 231.781 262.249 232.176 262.409 232.504C262.574 232.836 262.807 233.09 263.11 233.266C263.412 233.447 263.769 233.538 264.181 233.539C264.598 233.541 264.953 233.452 265.247 233.273C265.546 233.099 265.775 232.846 265.932 232.516C266.094 232.189 266.176 231.794 266.177 231.33L266.182 229.938L254.79 229.9L254.803 225.951ZM264.732 246.95C265.206 246.914 265.576 246.738 265.842 246.422C266.108 246.11 266.243 245.635 266.245 244.995C266.246 244.588 266.198 244.254 266.099 243.993C266.005 243.737 265.876 243.548 265.71 243.424C265.545 243.3 265.356 243.236 265.143 243.23C264.968 243.22 264.809 243.25 264.667 243.321C264.529 243.396 264.403 243.514 264.289 243.675C264.18 243.835 264.079 244.041 263.989 244.292C263.898 244.542 263.816 244.84 263.744 245.186L263.484 246.378C263.311 247.182 263.084 247.871 262.803 248.443C262.521 249.014 262.191 249.482 261.811 249.845C261.435 250.209 261.013 250.475 260.544 250.644C260.074 250.817 259.563 250.906 259.009 250.908C258.052 250.9 257.243 250.659 256.582 250.183C255.921 249.707 255.419 249.028 255.076 248.146C254.734 247.269 254.564 246.215 254.569 244.984C254.573 243.72 254.764 242.617 255.141 241.676C255.518 240.74 256.096 240.013 256.874 239.495C257.657 238.981 258.657 238.724 259.874 238.724L259.861 242.474C259.416 242.496 259.042 242.606 258.738 242.804C258.434 243.002 258.204 243.28 258.046 243.639C257.889 244.003 257.809 244.436 257.807 244.938C257.806 245.36 257.857 245.713 257.96 245.997C258.063 246.282 258.207 246.497 258.391 246.645C258.575 246.792 258.786 246.869 259.022 246.874C259.245 246.87 259.439 246.798 259.606 246.656C259.776 246.519 259.929 246.293 260.062 245.976C260.201 245.659 260.33 245.231 260.45 244.692L260.768 243.244C261.051 241.957 261.521 240.943 262.177 240.202C262.838 239.465 263.736 239.101 264.873 239.11C265.796 239.108 266.602 239.357 267.292 239.857C267.986 240.361 268.526 241.057 268.911 241.943C269.297 242.835 269.487 243.856 269.483 245.006C269.479 246.181 269.279 247.196 268.884 248.051C268.488 248.907 267.931 249.565 267.215 250.027C266.503 250.493 265.671 250.727 264.72 250.729L264.732 246.95ZM269.23 261.053L269.217 265.002L259.899 264.97C258.791 264.967 257.833 264.698 257.025 264.165C256.222 263.637 255.602 262.901 255.164 261.957C254.732 261.013 254.518 259.919 254.522 258.674C254.526 257.419 254.748 256.321 255.187 255.381C255.63 254.44 256.255 253.708 257.062 253.185C257.873 252.667 258.833 252.41 259.941 252.414L269.259 252.445L269.246 256.394L260.269 256.364C259.819 256.362 259.416 256.46 259.06 256.658C258.709 256.856 258.434 257.129 258.234 257.479C258.034 257.833 257.933 258.235 257.931 258.685C257.93 259.14 258.028 259.543 258.225 259.894C258.423 260.245 258.697 260.52 259.047 260.72C259.401 260.92 259.803 261.021 260.253 261.023L269.23 261.053ZM269.21 266.879L269.194 271.793L260.944 275.146L260.943 275.317L269.17 278.725L269.154 283.64L254.608 283.591L254.621 279.727L263.03 279.756L263.031 279.642L254.746 276.375L254.754 274.046L263.117 270.835L263.118 270.722L254.652 270.693L254.665 266.829L269.21 266.879Z" fill="#D9D9D9"/>
</svg>
