<svg width="41" height="20" viewBox="0 0 41 20" fill="none" xmlns="http://www.w3.org/2000/svg">
<path d="M32.6993 19.8645L8.42623 19.8645C3.97617 19.8645 0.335205 16.2888 0.335205 11.9186C0.335205 7.54831 3.97617 3.97266 8.42623 3.97266L32.6993 3.97266C37.1494 3.97266 40.7903 7.54831 40.7903 11.9186C40.7903 16.2888 37.1494 19.8645 32.6993 19.8645Z" fill="#ADADAD"/>
<path d="M32.6991 15.8918L8.42599 15.8918C3.97592 15.8918 0.334961 12.3161 0.334961 7.9459C0.334961 3.57565 3.97592 -1.11282e-09 8.42599 -2.47294e-09L32.6991 -9.89176e-09C37.1491 -1.12519e-08 40.7901 3.57565 40.7901 7.9459C40.7901 12.3161 37.1491 15.8918 32.6991 15.8918Z" fill="#3BB54A"/>
<path d="M20.5626 11.9186C22.7969 11.9186 24.6081 10.1399 24.6081 7.94561C24.6081 5.75135 22.7969 3.97266 20.5626 3.97266C18.3283 3.97266 16.5171 5.75135 16.5171 7.94561C16.5171 10.1399 18.3283 11.9186 20.5626 11.9186Z" fill="#0E9347"/>
</svg>
